<svg xmlns="http://www.w3.org/2000/svg" data-name="Livello 1" width="128" height="128" style=""><rect id="backgroundrect" width="100%" height="100%" x="0" y="0" fill="none" stroke="none"/><title/><g class="currentLayer" style=""><title>Layer 1</title><path d="M64,0a64,64,0,1,0,64,64A64.07,64.07,0,0,0,64,0Zm0,122a58,58,0,1,1,58-58A58.07,58.07,0,0,1,64,122Z" id="svg_1" class="" fill="#ffffff" fill-opacity="1"/><path d="M58.12,35.88a3,3,0,0,0-4.24,4.24L77.76,64,53.88,87.88a3,3,0,1,0,4.24,4.24l26-26a3,3,0,0,0,0-4.24Z" id="svg_2" class="" stroke="none" fill="#ffffff" fill-opacity="1"/></g></svg>